<svg width="58" height="51" viewBox="0 0 58 51" fill="none" xmlns="http://www.w3.org/2000/svg">
<path d="M31.8264 37V21.581H27.8484V17.076H41.5504V21.581H37.5724V37H31.8264Z" fill="url(#paint0_linear_866_2513)"/>
<path d="M22.9057 14.196C29.6228 9.65869 36.2588 6.38739 41.5531 4.76309C44.2015 3.95053 46.5025 3.55387 48.3036 3.61021C50.1106 3.66684 51.3647 4.1764 52.0005 5.11754C52.6362 6.05869 52.6406 7.41233 52.0185 9.10982C51.3983 10.8018 50.1712 12.7882 48.4285 14.9417C44.945 19.2466 39.4326 24.1813 32.7155 28.7186C25.9984 33.2559 19.3623 36.5272 14.0681 38.1515C11.4197 38.964 9.11946 39.3602 7.31836 39.3039C5.51102 39.2473 4.25651 38.7383 3.62071 37.7971C2.98493 36.8558 2.98113 35.502 3.60349 33.8043C4.2237 32.1124 5.45006 30.1264 7.19263 27.9729C10.6761 23.668 16.1886 18.7333 22.9057 14.196Z" stroke="url(#paint1_linear_866_2513)" stroke-width="0.437221"/>
<mask id="path-3-inside-1_866_2513" fill="white">
<path d="M19.2835 27H13.9115L9.1685 7.076H14.8295L15.7305 13.944L17.0735 20.608L18.7905 13.944L19.2325 12.125L17.9235 7.076H23.4825L24.7065 13.944L26.2025 20.608L27.1375 13.944L28.1405 7.076H33.3085L28.9225 27H23.1255L21.0345 18.993L19.2835 27Z"/>
</mask>
<path d="M19.2835 27H13.9115L9.1685 7.076H14.8295L15.7305 13.944L17.0735 20.608L18.7905 13.944L19.2325 12.125L17.9235 7.076H23.4825L24.7065 13.944L26.2025 20.608L27.1375 13.944L28.1405 7.076H33.3085L28.9225 27H23.1255L21.0345 18.993L19.2835 27Z" fill="url(#paint2_linear_866_2513)"/>
<path d="M19.2835 27V27.1889H19.4355L19.468 27.0404L19.2835 27ZM13.9115 27L13.7277 27.0437L13.7623 27.1889H13.9115V27ZM9.1685 7.076V6.88711H8.92937L8.98475 7.11974L9.1685 7.076ZM14.8295 7.076L15.0168 7.05143L14.9952 6.88711H14.8295V7.076ZM15.7305 13.944L15.5428 13.9686L15.5453 13.9813L15.7305 13.944ZM17.0735 20.608L16.8883 20.6453L17.2564 20.6551L17.0735 20.608ZM18.7905 13.944L18.9734 13.9911L18.9741 13.9886L18.7905 13.944ZM19.2325 12.125L19.4161 12.1696L19.4273 12.1235L19.4153 12.0776L19.2325 12.125ZM17.9235 7.076V6.88711H17.6794L17.7407 7.1234L17.9235 7.076ZM23.4825 7.076L23.6685 7.04286L23.6407 6.88711H23.4825V7.076ZM24.7065 13.944L24.5204 13.9772L24.5222 13.9854L24.7065 13.944ZM26.2025 20.608L26.0182 20.6494L26.3896 20.6342L26.2025 20.608ZM27.1375 13.944L26.9506 13.9167L26.9504 13.9178L27.1375 13.944ZM28.1405 7.076V6.88711H27.9772L27.9536 7.0487L28.1405 7.076ZM33.3085 7.076L33.493 7.11661L33.5435 6.88711H33.3085V7.076ZM28.9225 27V27.1889H29.0743L29.107 27.0406L28.9225 27ZM23.1255 27L22.9427 27.0477L22.9796 27.1889H23.1255V27ZM21.0345 18.993L21.2173 18.9453L20.85 18.9526L21.0345 18.993ZM19.2835 27V26.8111H13.9115V27V27.1889H19.2835V27ZM13.9115 27L14.0953 26.9563L9.35226 7.03226L9.1685 7.076L8.98475 7.11974L13.7277 27.0437L13.9115 27ZM9.1685 7.076V7.26489H14.8295V7.076V6.88711H9.1685V7.076ZM14.8295 7.076L14.6422 7.10057L15.5432 13.9686L15.7305 13.944L15.9178 13.9194L15.0168 7.05143L14.8295 7.076ZM15.7305 13.944L15.5453 13.9813L16.8883 20.6453L17.0735 20.608L17.2587 20.5707L15.9157 13.9067L15.7305 13.944ZM17.0735 20.608L17.2564 20.6551L18.9734 13.9911L18.7905 13.944L18.6076 13.8969L16.8906 20.5609L17.0735 20.608ZM18.7905 13.944L18.9741 13.9886L19.4161 12.1696L19.2325 12.125L19.049 12.0804L18.607 13.8994L18.7905 13.944ZM19.2325 12.125L19.4153 12.0776L18.1063 7.0286L17.9235 7.076L17.7407 7.1234L19.0497 12.1724L19.2325 12.125ZM17.9235 7.076V7.26489H23.4825V7.076V6.88711H17.9235V7.076ZM23.4825 7.076L23.2965 7.10914L24.5205 13.9771L24.7065 13.944L24.8925 13.9109L23.6685 7.04286L23.4825 7.076ZM24.7065 13.944L24.5222 13.9854L26.0182 20.6494L26.2025 20.608L26.3868 20.5666L24.8908 13.9026L24.7065 13.944ZM26.2025 20.608L26.3896 20.6342L27.3246 13.9702L27.1375 13.944L26.9504 13.9178L26.0154 20.5818L26.2025 20.608ZM27.1375 13.944L27.3244 13.9713L28.3274 7.1033L28.1405 7.076L27.9536 7.0487L26.9506 13.9167L27.1375 13.944ZM28.1405 7.076V7.26489H33.3085V7.076V6.88711H28.1405V7.076ZM33.3085 7.076L33.124 7.03539L28.738 26.9594L28.9225 27L29.107 27.0406L33.493 7.11661L33.3085 7.076ZM28.9225 27V26.8111H23.1255V27V27.1889H28.9225V27ZM23.1255 27L23.3083 26.9523L21.2173 18.9453L21.0345 18.993L20.8517 19.0407L22.9427 27.0477L23.1255 27ZM21.0345 18.993L20.85 18.9526L19.099 26.9596L19.2835 27L19.468 27.0404L21.219 19.0334L21.0345 18.993Z" fill="#1976D2" mask="url(#path-3-inside-1_866_2513)"/>
<defs>
<linearGradient id="paint0_linear_866_2513" x1="42.2222" y1="31.4933" x2="27.2222" y2="31.4938" gradientUnits="userSpaceOnUse">
<stop stop-color="#1976D2"/>
<stop offset="1" stop-color="#0D3D6C"/>
</linearGradient>
<linearGradient id="paint1_linear_866_2513" x1="3.43947" y1="37.9196" x2="52.182" y2="4.995" gradientUnits="userSpaceOnUse">
<stop stop-color="#115293"/>
<stop offset="0.524038" stop-color="#2D7ECE"/>
<stop offset="1" stop-color="#AED0F2"/>
</linearGradient>
<linearGradient id="paint2_linear_866_2513" x1="34.2222" y1="22" x2="8.22217" y2="22" gradientUnits="userSpaceOnUse">
<stop stop-color="#F4F8FF"/>
<stop offset="1" stop-color="#1976D2"/>
</linearGradient>
</defs>
</svg>
