<svg width="135" height="51" viewBox="0 0 135 51" fill="none" xmlns="http://www.w3.org/2000/svg">
<path d="M60.4123 32V16.581H56.4343V12.076H70.1363V16.581H66.1583V32H60.4123ZM79.3619 32H73.8709V21.001L72.8509 20.372V18.451L76.5059 17.55H77.8829L78.3759 21.596C78.8405 18.8193 80.3309 17.431 82.8469 17.431C83.1302 17.431 83.4249 17.482 83.7309 17.584L83.1529 23.636C82.9149 23.4207 82.3935 23.313 81.5889 23.313C80.4329 23.313 79.6905 23.619 79.3619 24.231V32ZM94.4609 30.487L94.2909 30.674C94.1776 30.81 94.0019 30.9687 93.7639 31.15C93.5373 31.3313 93.2709 31.5127 92.9649 31.694C92.6703 31.8753 92.3076 32.0283 91.8769 32.153C91.4463 32.289 91.0043 32.357 90.5509 32.357C87.4909 32.357 85.9609 30.844 85.9609 27.818C85.9609 27.2287 86.0686 26.6903 86.2839 26.203C86.4993 25.7043 86.7769 25.285 87.1169 24.945C87.4569 24.605 87.8649 24.3047 88.3409 24.044C88.8169 23.772 89.2929 23.5623 89.7689 23.415C90.2563 23.2563 90.7663 23.126 91.2989 23.024C91.8316 22.922 92.3076 22.854 92.7269 22.82C93.1463 22.786 93.5486 22.769 93.9339 22.769V22.463C93.9339 21.7717 93.7469 21.2843 93.3729 21.001C93.0103 20.7177 92.4209 20.576 91.6049 20.576C90.9023 20.576 90.1713 20.661 89.4119 20.831C88.6526 20.9897 88.0576 21.1823 87.6269 21.409L86.5389 19.097C87.3096 18.5983 88.3126 18.162 89.5479 17.788C90.7833 17.4027 92.0413 17.21 93.3219 17.21C94.4553 17.21 95.3903 17.3233 96.1269 17.55C96.8636 17.7653 97.4586 18.1393 97.9119 18.672C98.3766 19.1933 98.7053 19.862 98.8979 20.678C99.0906 21.4827 99.1869 22.5083 99.1869 23.755V30.674L99.6629 32H95.0049L94.4609 30.487ZM93.1179 29.365C93.2653 29.365 93.4013 29.3367 93.5259 29.28C93.6619 29.212 93.7639 29.1497 93.8319 29.093C93.8999 29.025 93.9339 28.991 93.9339 28.991V24.911C93.2426 24.911 92.6929 25.1037 92.2849 25.489C91.8769 25.863 91.6729 26.4467 91.6729 27.24C91.6729 28.6567 92.1546 29.365 93.1179 29.365ZM114.774 30.589L114.621 30.776C114.519 30.8893 114.338 31.0367 114.077 31.218C113.828 31.388 113.522 31.5637 113.159 31.745C112.808 31.915 112.332 32.0567 111.731 32.17C111.142 32.2947 110.507 32.357 109.827 32.357C107.526 32.357 105.764 31.6827 104.54 30.334C103.327 28.9853 102.721 27.2003 102.721 24.979C102.721 23.7777 102.908 22.684 103.282 21.698C103.656 20.712 104.166 19.896 104.812 19.25C105.469 18.5927 106.234 18.0883 107.107 17.737C107.991 17.3743 108.943 17.193 109.963 17.193C111.935 17.193 113.465 17.6633 114.553 18.604C114.791 18.842 114.91 18.961 114.91 18.961L114.655 22.956L112.241 22.973L111.272 20.372C111.181 20.3493 111.057 20.338 110.898 20.338C109.867 20.338 109.153 20.695 108.756 21.409C108.371 22.1117 108.178 23.3357 108.178 25.081C108.178 25.8403 108.24 26.492 108.365 27.036C108.49 27.5687 108.631 27.971 108.79 28.243C108.949 28.5037 109.158 28.7077 109.419 28.855C109.691 29.0023 109.912 29.0873 110.082 29.11C110.252 29.1327 110.462 29.144 110.711 29.144C111.278 29.144 111.856 29.076 112.445 28.94C113.046 28.804 113.539 28.583 113.924 28.277L114.774 30.589ZM126.272 23.211C126.272 21.7717 126.199 20.7517 126.051 20.151C125.904 19.5503 125.632 19.25 125.235 19.25C124.895 19.25 124.618 19.3123 124.402 19.437C124.187 19.5503 124.028 19.7373 123.926 19.998C123.824 20.2473 123.756 20.508 123.722 20.78C123.7 21.0407 123.688 21.375 123.688 21.783V23.211H126.272ZM124.912 32.357C123.643 32.357 122.538 32.1643 121.597 31.779C120.668 31.3937 119.931 30.8553 119.387 30.164C118.855 29.4727 118.464 28.6963 118.214 27.835C117.965 26.9623 117.84 25.9933 117.84 24.928C117.84 22.3893 118.486 20.4683 119.778 19.165C121.07 17.8617 122.878 17.21 125.201 17.21C127.434 17.21 129.032 17.737 129.995 18.791C130.959 19.8337 131.44 21.5167 131.44 23.84V25.727H123.671V26.05C123.671 26.7187 123.739 27.2683 123.875 27.699C124.023 28.1297 124.232 28.447 124.504 28.651C124.776 28.855 125.054 28.991 125.337 29.059C125.621 29.127 125.966 29.161 126.374 29.161C126.771 29.161 127.196 29.11 127.649 29.008C128.114 28.906 128.579 28.7473 129.043 28.532C129.519 28.3167 129.916 28.0617 130.233 27.767L131.236 29.484C130.817 30.164 130.199 30.7363 129.383 31.201C128.579 31.6543 127.802 31.9603 127.054 32.119C126.306 32.2777 125.592 32.357 124.912 32.357Z" fill="url(#paint0_linear_267_2725)"/>
<mask id="path-2-inside-1_267_2725" fill="white">
<path d="M9.43755 32H4.66244L0.446439 14.2898H5.47844L6.27933 20.3947L7.47311 26.3182L8.99933 20.3947L9.39222 18.7778L8.22866 14.2898H13.17L14.258 20.3947L15.5878 26.3182L16.4189 20.3947L17.3104 14.2898H21.9042L18.0055 32H12.8527L10.994 24.8827L9.43755 32ZM30.277 30.504C30.7202 30.504 31.0577 30.3227 31.2894 29.96C31.5312 29.5873 31.6521 29.0785 31.6521 28.4338V23.6587C31.6521 21.6942 31.1887 20.712 30.2618 20.712C29.8287 20.712 29.4912 20.8883 29.2494 21.2409C29.0076 21.5935 28.8867 22.0921 28.8867 22.7369V27.648C28.8867 29.552 29.3501 30.504 30.277 30.504ZM30.1561 32.3173C27.8491 32.3173 26.1617 31.7935 25.0938 30.7458C24.026 29.6981 23.4921 28.0258 23.4921 25.7289C23.4921 23.4521 24.031 21.7396 25.109 20.5911C26.1869 19.4326 27.9398 18.8533 30.3676 18.8533C32.735 18.8533 34.4426 19.4074 35.4903 20.5156C36.5481 21.6136 37.077 23.2809 37.077 25.5173C37.077 27.8344 36.5178 29.547 35.3996 30.6551C34.2915 31.7633 32.5436 32.3173 30.1561 32.3173ZM45.4173 32H40.5365V22.2231L39.6298 21.664V19.9564L42.8787 19.1556H44.1027L44.5409 22.752C44.9539 20.2839 46.2787 19.0498 48.5151 19.0498C48.767 19.0498 49.0289 19.0951 49.3009 19.1858L48.7871 24.5653C48.5756 24.3739 48.1122 24.2782 47.3969 24.2782C46.3693 24.2782 45.7095 24.5502 45.4173 25.0942V32ZM59.6698 32L57.3276 25.8196L59.8058 19.1556H65.4725L61.5134 25.0942L65.5632 32H59.6698ZM52.0992 32V14.9093L51.1925 14.3653V12.96L56.0432 12.2044H57.0254V32H52.0992Z"/>
</mask>
<path d="M9.43755 32H4.66244L0.446439 14.2898H5.47844L6.27933 20.3947L7.47311 26.3182L8.99933 20.3947L9.39222 18.7778L8.22866 14.2898H13.17L14.258 20.3947L15.5878 26.3182L16.4189 20.3947L17.3104 14.2898H21.9042L18.0055 32H12.8527L10.994 24.8827L9.43755 32ZM30.277 30.504C30.7202 30.504 31.0577 30.3227 31.2894 29.96C31.5312 29.5873 31.6521 29.0785 31.6521 28.4338V23.6587C31.6521 21.6942 31.1887 20.712 30.2618 20.712C29.8287 20.712 29.4912 20.8883 29.2494 21.2409C29.0076 21.5935 28.8867 22.0921 28.8867 22.7369V27.648C28.8867 29.552 29.3501 30.504 30.277 30.504ZM30.1561 32.3173C27.8491 32.3173 26.1617 31.7935 25.0938 30.7458C24.026 29.6981 23.4921 28.0258 23.4921 25.7289C23.4921 23.4521 24.031 21.7396 25.109 20.5911C26.1869 19.4326 27.9398 18.8533 30.3676 18.8533C32.735 18.8533 34.4426 19.4074 35.4903 20.5156C36.5481 21.6136 37.077 23.2809 37.077 25.5173C37.077 27.8344 36.5178 29.547 35.3996 30.6551C34.2915 31.7633 32.5436 32.3173 30.1561 32.3173ZM45.4173 32H40.5365V22.2231L39.6298 21.664V19.9564L42.8787 19.1556H44.1027L44.5409 22.752C44.9539 20.2839 46.2787 19.0498 48.5151 19.0498C48.767 19.0498 49.0289 19.0951 49.3009 19.1858L48.7871 24.5653C48.5756 24.3739 48.1122 24.2782 47.3969 24.2782C46.3693 24.2782 45.7095 24.5502 45.4173 25.0942V32ZM59.6698 32L57.3276 25.8196L59.8058 19.1556H65.4725L61.5134 25.0942L65.5632 32H59.6698ZM52.0992 32V14.9093L51.1925 14.3653V12.96L56.0432 12.2044H57.0254V32H52.0992Z" fill="url(#paint1_linear_267_2725)"/>
<path d="M9.43755 32V32.1889H9.5896L9.62208 32.0404L9.43755 32ZM4.66244 32L4.47869 32.0437L4.51324 32.1889H4.66244V32ZM0.446439 14.2898V14.1009H0.207306L0.262685 14.3335L0.446439 14.2898ZM5.47844 14.2898L5.66572 14.2652L5.64417 14.1009H5.47844V14.2898ZM6.27933 20.3947L6.0916 20.4193L6.09416 20.432L6.27933 20.3947ZM7.47311 26.3182L7.28794 26.3555L7.65602 26.3654L7.47311 26.3182ZM8.99933 20.3947L9.18226 20.4418L9.18288 20.4393L8.99933 20.3947ZM9.39222 18.7778L9.57576 18.8224L9.58696 18.7763L9.57506 18.7304L9.39222 18.7778ZM8.22866 14.2898V14.1009H7.98456L8.04582 14.3372L8.22866 14.2898ZM13.17 14.2898L13.356 14.2566L13.3282 14.1009H13.17V14.2898ZM14.258 20.3947L14.0719 20.4278L14.0737 20.436L14.258 20.3947ZM15.5878 26.3182L15.4035 26.3596L15.7748 26.3445L15.5878 26.3182ZM16.4189 20.3947L16.232 20.3674L16.2318 20.3684L16.4189 20.3947ZM17.3104 14.2898V14.1009H17.1471L17.1235 14.2625L17.3104 14.2898ZM21.9042 14.2898L22.0887 14.3304L22.1392 14.1009H21.9042V14.2898ZM18.0056 32V32.1889H18.1574L18.19 32.0406L18.0056 32ZM12.8527 32L12.6699 32.0477L12.7068 32.1889H12.8527V32ZM10.994 24.8827L11.1768 24.8349L10.8095 24.8423L10.994 24.8827ZM9.43755 31.8111H4.66244V32.1889H9.43755V31.8111ZM4.84619 31.9563L0.630193 14.246L0.262685 14.3335L4.47869 32.0437L4.84619 31.9563ZM0.446439 14.4787H5.47844V14.1009H0.446439V14.4787ZM5.29115 14.3143L6.09204 20.4192L6.46661 20.3701L5.66572 14.2652L5.29115 14.3143ZM6.09416 20.432L7.28794 26.3555L7.65827 26.2809L6.46449 20.3574L6.09416 20.432ZM7.65602 26.3654L9.18224 20.4418L8.81641 20.3475L7.29019 26.2711L7.65602 26.3654ZM9.18288 20.4393L9.57576 18.8224L9.20867 18.7332L8.81578 20.3501L9.18288 20.4393ZM9.57506 18.7304L8.41151 14.2424L8.04582 14.3372L9.20937 18.8252L9.57506 18.7304ZM8.22866 14.4787H13.17V14.1009H8.22866V14.4787ZM12.984 14.3229L14.072 20.4278L14.444 20.3615L13.356 14.2566L12.984 14.3229ZM14.0737 20.436L15.4035 26.3596L15.7721 26.2768L14.4423 20.3533L14.0737 20.436ZM15.7748 26.3445L16.6059 20.4209L16.2318 20.3684L15.4007 26.292L15.7748 26.3445ZM16.6058 20.422L17.4973 14.3171L17.1235 14.2625L16.232 20.3674L16.6058 20.422ZM17.3104 14.4787H21.9042V14.1009H17.3104V14.4787ZM21.7197 14.2492L17.8211 31.9594L18.19 32.0406L22.0887 14.3304L21.7197 14.2492ZM18.0056 31.8111H12.8527V32.1889H18.0056V31.8111ZM13.0354 31.9523L11.1768 24.8349L10.8112 24.9304L12.6699 32.0477L13.0354 31.9523ZM10.8095 24.8423L9.25302 31.9596L9.62208 32.0404L11.1785 24.923L10.8095 24.8423ZM31.2894 29.96L31.1309 29.8572L31.1302 29.8583L31.2894 29.96ZM25.0938 30.7458L24.9616 30.8806L25.0938 30.7458ZM25.109 20.5911L25.2467 20.7204L25.2472 20.7198L25.109 20.5911ZM35.4903 20.5156L35.353 20.6453L35.3542 20.6466L35.4903 20.5156ZM35.3996 30.6551L35.2667 30.5209L35.2661 30.5215L35.3996 30.6551ZM30.277 30.6929C30.7823 30.6929 31.1809 30.4806 31.4486 30.0617L31.1302 29.8583C30.9345 30.1647 30.6581 30.3151 30.277 30.3151V30.6929ZM31.4479 30.0628C31.7166 29.6486 31.841 29.0994 31.841 28.4338H31.4632C31.4632 29.0576 31.3458 29.526 31.1309 29.8572L31.4479 30.0628ZM31.841 28.4338V23.6587H31.4632V28.4338H31.841ZM31.841 23.6587C31.841 22.6676 31.725 21.8973 31.4753 21.3681C31.3493 21.101 31.1858 20.888 30.9791 20.7419C30.7705 20.5946 30.5289 20.5231 30.2618 20.5231V20.9009C30.4582 20.9009 30.622 20.9522 30.7611 21.0504C30.9018 21.1499 31.028 21.3052 31.1337 21.5293C31.3474 21.9823 31.4632 22.6853 31.4632 23.6587H31.841ZM30.2618 20.5231C29.7674 20.5231 29.3712 20.7293 29.0936 21.1341L29.4052 21.3477C29.6112 21.0473 29.8899 20.9009 30.2618 20.9009V20.5231ZM29.0936 21.1341C28.8219 21.5304 28.6978 22.0722 28.6978 22.7369H29.0756C29.0756 22.1121 29.1934 21.6566 29.4052 21.3477L29.0936 21.1341ZM28.6978 22.7369V27.648H29.0756V22.7369H28.6978ZM28.6978 27.648C28.6978 28.6093 28.8138 29.3578 29.0644 29.8727C29.191 30.1327 29.3551 30.3397 29.562 30.4813C29.7703 30.624 30.0111 30.6929 30.277 30.6929V30.3151C30.0794 30.3151 29.9147 30.265 29.7755 30.1697C29.6348 30.0733 29.5093 29.9233 29.4041 29.7073C29.1913 29.2702 29.0756 28.5907 29.0756 27.648H28.6978ZM30.1561 32.1284C27.8724 32.1284 26.2436 31.6092 25.2261 30.6109L24.9616 30.8806C26.0798 31.9777 27.8258 32.5062 30.1561 32.5062V32.1284ZM25.2261 30.6109C24.2099 29.6139 23.681 28.0017 23.681 25.7289H23.3032C23.3032 28.0498 23.8421 29.7823 24.9616 30.8806L25.2261 30.6109ZM23.681 25.7289C23.681 23.4789 24.2137 21.8209 25.2467 20.7204L24.9712 20.4618C23.8483 21.6582 23.3032 23.4254 23.3032 25.7289H23.681ZM25.2472 20.7198C26.2741 19.6161 27.9645 19.0422 30.3676 19.0422V18.6644C27.9151 18.6644 26.0996 19.2491 24.9707 20.4624L25.2472 20.7198ZM30.3676 19.0422C32.7113 19.0422 34.3566 19.5914 35.353 20.6453L35.6275 20.3858C34.5286 19.2234 32.7588 18.6644 30.3676 18.6644V19.0422ZM35.3542 20.6466C36.3651 21.696 36.8881 23.3071 36.8881 25.5173H37.2658C37.2658 23.2546 36.731 21.5313 35.6263 20.3845L35.3542 20.6466ZM36.8881 25.5173C36.8881 27.8077 36.3352 29.462 35.2667 30.5209L35.5326 30.7893C36.7005 29.6319 37.2658 27.8611 37.2658 25.5173H36.8881ZM35.2661 30.5215C34.2081 31.5795 32.5193 32.1284 30.1561 32.1284V32.5062C32.568 32.5062 34.3748 31.947 35.5332 30.7887L35.2661 30.5215ZM45.4173 32V32.1889H45.6062V32H45.4173ZM40.5364 32H40.3476V32.1889H40.5364V32ZM40.5364 22.2231H40.7253V22.1177L40.6356 22.0623L40.5364 22.2231ZM39.6298 21.664H39.4409V21.7694L39.5306 21.8248L39.6298 21.664ZM39.6298 19.9564L39.5846 19.773L39.4409 19.8085V19.9564H39.6298ZM42.8787 19.1556V18.9667H42.8557L42.8335 18.9722L42.8787 19.1556ZM44.1027 19.1556L44.2902 19.1327L44.2699 18.9667H44.1027V19.1556ZM44.5409 22.752L44.3534 22.7748L44.7272 22.7832L44.5409 22.752ZM49.3009 19.1858L49.4889 19.2037L49.5032 19.0541L49.3606 19.0066L49.3009 19.1858ZM48.7871 24.5653L48.6604 24.7054L48.9394 24.9578L48.9752 24.5833L48.7871 24.5653ZM45.4173 25.0942L45.2509 25.0049L45.2285 25.0467V25.0942H45.4173ZM45.4173 31.8111H40.5364V32.1889H45.4173V31.8111ZM40.7253 32V22.2231H40.3476V32H40.7253ZM40.6356 22.0623L39.7289 21.5032L39.5306 21.8248L40.4373 22.3839L40.6356 22.0623ZM39.8187 21.664V19.9564H39.4409V21.664H39.8187ZM39.675 20.1398L42.9239 19.339L42.8335 18.9722L39.5846 19.773L39.675 20.1398ZM42.8787 19.3444H44.1027V18.9667H42.8787V19.3444ZM43.9152 19.1784L44.3534 22.7748L44.7284 22.7292L44.2902 19.1327L43.9152 19.1784ZM44.7272 22.7832C44.9294 21.5747 45.3508 20.6931 45.973 20.1135C46.5926 19.5363 47.4329 19.2387 48.5151 19.2387V18.8609C47.3609 18.8609 46.4206 19.1803 45.7155 19.8371C45.0129 20.4916 44.5654 21.4611 44.3546 22.7208L44.7272 22.7832ZM48.5151 19.2387C48.7441 19.2387 48.9858 19.2799 49.2412 19.365L49.3606 19.0066C49.072 18.9104 48.7899 18.8609 48.5151 18.8609V19.2387ZM49.1129 19.1678L48.5991 24.5474L48.9752 24.5833L49.4889 19.2037L49.1129 19.1678ZM48.9138 24.4253C48.7717 24.2966 48.5645 24.2157 48.3191 24.165C48.0702 24.1136 47.7616 24.0893 47.3969 24.0893V24.4671C47.7475 24.4671 48.0282 24.4907 48.2427 24.535C48.4607 24.58 48.591 24.6426 48.6604 24.7054L48.9138 24.4253ZM47.3969 24.0893C46.3484 24.0893 45.5939 24.3662 45.2509 25.0049L45.5837 25.1836C45.8251 24.7343 46.3903 24.4671 47.3969 24.4671V24.0893ZM45.2285 25.0942V32H45.6062V25.0942H45.2285ZM59.6698 32L59.4932 32.0669L59.5394 32.1889H59.6698V32ZM57.3276 25.8196L57.1506 25.7537L57.1259 25.8202L57.151 25.8865L57.3276 25.8196ZM59.8058 19.1556V18.9667H59.6746L59.6288 19.0897L59.8058 19.1556ZM65.4725 19.1556L65.6297 19.2603L65.8254 18.9667H65.4725V19.1556ZM61.5134 25.0942L61.3562 24.9894L61.2907 25.0878L61.3505 25.1898L61.5134 25.0942ZM65.5632 32V32.1889H65.8929L65.7261 31.9044L65.5632 32ZM52.0992 32H51.9103V32.1889H52.0992V32ZM52.0992 14.9093H52.2881V14.8024L52.1964 14.7474L52.0992 14.9093ZM51.1925 14.3653H51.0036V14.4723L51.0953 14.5273L51.1925 14.3653ZM51.1925 12.96L51.1634 12.7734L51.0036 12.7983V12.96H51.1925ZM56.0432 12.2044V12.0156H56.0285L56.0141 12.0178L56.0432 12.2044ZM57.0254 12.2044H57.2143V12.0156H57.0254V12.2044ZM57.0254 32V32.1889H57.2143V32H57.0254ZM59.8465 31.9331L57.5042 25.7526L57.151 25.8865L59.4932 32.0669L59.8465 31.9331ZM57.5047 25.8854L59.9829 19.2214L59.6288 19.0897L57.1506 25.7537L57.5047 25.8854ZM59.8058 19.3444H65.4725V18.9667H59.8058V19.3444ZM65.3153 19.0508L61.3562 24.9894L61.6706 25.199L65.6297 19.2603L65.3153 19.0508ZM61.3505 25.1898L65.4002 32.0956L65.7261 31.9044L61.6763 24.9987L61.3505 25.1898ZM65.5632 31.8111H59.6698V32.1889H65.5632V31.8111ZM52.2881 32V14.9093H51.9103V32H52.2881ZM52.1964 14.7474L51.2897 14.2034L51.0953 14.5273L52.002 15.0713L52.1964 14.7474ZM51.3814 14.3653V12.96H51.0036V14.3653H51.3814ZM51.2216 13.1466L56.0722 12.3911L56.0141 12.0178L51.1634 12.7734L51.2216 13.1466ZM56.0432 12.3933H57.0254V12.0156H56.0432V12.3933ZM56.8365 12.2044V32H57.2143V12.2044H56.8365ZM57.0254 31.8111H52.0992V32.1889H57.0254V31.8111Z" fill="#1976D2" mask="url(#path-2-inside-1_267_2725)"/>
<defs>
<linearGradient id="paint0_linear_267_2725" x1="132.111" y1="26.4933" x2="56.1113" y2="26.5062" gradientUnits="userSpaceOnUse">
<stop stop-color="#1976D2"/>
<stop offset="1" stop-color="#0D3D6C"/>
</linearGradient>
<linearGradient id="paint1_linear_267_2725" x1="65.1113" y1="26.5" x2="1.11133" y2="26.5" gradientUnits="userSpaceOnUse">
<stop stop-color="#F4F8FF"/>
<stop offset="1" stop-color="#1976D2"/>
</linearGradient>
</defs>
</svg>
